<svg width="1920" height="1080" viewBox="0 0 1920 1080" xmlns="http://www.w3.org/2000/svg"><rect width="1920" height="1080" fill="#a0defd"/><path d="M 0,1080 C 0,1080 0,154 0,154 C 71.66108247422679,184.8271354933726 143.32216494845358,215.6542709867452 234,203 C 324.6778350515464,190.3457290132548 434.37242268041234,134.21005154639175 530,111 C 625.6275773195877,87.78994845360823 707.188144329897,97.50552282768774 806,126 C 904.811855670103,154.49447717231226 1020.875,201.76785714285717 1126,192 C 1231.125,182.23214285714283 1325.3118556701031,115.42304860088362 1400,116 C 1474.6881443298969,116.57695139911638 1529.877577319588,184.53994845360828 1624,194 C 1718.122422680412,203.46005154639172 1851.1778350515463,154.41715758468337 1907,138 C 1962.8221649484537,121.58284241531665 1941.411082474227,137.79142120765832 1920,154 C 1920,154 1920,1080 1920,1080 Z" fill="#3d1053" opacity="0.08571428571428572"/><path d="M 0,1080 C 0,1080 0,308 0,308 C 102.79436671575846,289.5169366715759 205.5887334315169,271.0338733431517 284,276 C 362.4112665684831,280.9661266568483 416.4394329896908,309.38144329896915 511,303 C 605.5605670103092,296.61855670103085 740.6535346097203,255.440353460972 854,259 C 967.3464653902797,262.559646539028 1058.9464285714287,310.8571428571429 1145,310 C 1231.0535714285713,309.1428571428571 1311.5607511045653,259.13107511045655 1381,253 C 1450.4392488954347,246.86892488954342 1508.8105670103096,284.6185567010309 1621,307 C 1733.1894329896904,329.3814432989691 1899.1969808541974,336.39469808541975 1958,334 C 2016.8030191458026,331.60530191458025 1968.4015095729014,319.8026509572901 1920,308 C 1920,308 1920,1080 1920,1080 Z" fill="#3d1053" opacity="0.17142857142857143"/><path d="M 0,1080 C 0,1080 0,462 0,462 C 97.05449189985274,496.5145434462445 194.10898379970547,531.029086892489 287,513 C 379.89101620029453,494.9709131075111 468.6185567010309,424.3981958762887 562,424 C 655.3814432989691,423.6018041237113 753.4167893961708,493.37812960235635 842,505 C 930.5832106038292,516.6218703976436 1009.714285714286,470.0892857142857 1087,454 C 1164.285714285714,437.9107142857143 1239.726067746686,452.26472754050076 1328,454 C 1416.273932253314,455.73527245949924 1517.381443298969,444.8518041237113 1636,436 C 1754.618556701031,427.1481958762887 1890.7481590574373,420.3280559646539 1941,425 C 1991.2518409425627,429.6719440353461 1955.6259204712815,445.83597201767304 1920,462 C 1920,462 1920,1080 1920,1080 Z" fill="#3d1053" opacity="0.2571428571428571"/><path d="M 0,1080 C 0,1080 0,617 0,617 C 67.84867452135492,580.3996686303387 135.69734904270985,543.7993372606774 228,565 C 320.30265095729015,586.2006627393226 437.05927835051557,665.2023195876288 553,671 C 668.9407216494844,676.7976804123712 784.0655375552284,609.3913843888071 855,594 C 925.9344624447716,578.6086156111929 952.6785714285716,615.2321428571428 1051,635 C 1149.3214285714284,654.7678571428572 1319.220176730486,657.6800441826216 1418,659 C 1516.779823269514,660.3199558173784 1544.4407216494844,660.0476804123712 1642,648 C 1739.5592783505156,635.9523195876288 1907.0169366715759,612.129234167894 1965,605 C 2022.9830633284241,597.870765832106 1971.491531664212,607.435382916053 1920,617 C 1920,617 1920,1080 1920,1080 Z" fill="#3d1053" opacity="0.34285714285714286"/><path d="M 0,1080 C 0,1080 0,771 0,771 C 62.98748159057439,752.709499263623 125.97496318114878,734.418998527246 223,721 C 320.0250368188512,707.581001472754 451.08762886597935,699.0335051546392 555,723 C 658.9123711340206,746.9664948453608 735.6745213549337,803.4469808541972 822,816 C 908.3254786450663,828.5530191458028 1004.2142857142856,797.1785714285716 1105,797 C 1205.7857142857144,796.8214285714284 1311.4683357879237,827.8387334315169 1403,823 C 1494.5316642120763,818.1612665684831 1571.9123711340203,777.4664948453609 1669,767 C 1766.0876288659797,756.5335051546391 1882.8821796759944,776.2952871870397 1928,782 C 1973.1178203240056,787.7047128129603 1946.5589101620028,779.3523564064801 1920,771 C 1920,771 1920,1080 1920,1080 Z" fill="#3d1053" opacity="0.4285714285714286"/><path d="M 0,1080 C 0,1080 0,925 0,925 C 68.76343888070693,934.6076951399116 137.52687776141386,944.2153902798233 235,934 C 332.47312223858614,923.7846097201767 458.65592783505156,893.7461340206186 552,883 C 645.3440721649484,872.2538659793814 705.84941089838,880.8000736377024 783,883 C 860.15058910162,885.1999263622976 953.9464285714284,881.0535714285714 1070,889 C 1186.0535714285716,896.9464285714286 1324.3648748159058,916.9856406480118 1408,928 C 1491.6351251840942,939.0143593519882 1520.5940721649486,941.0038659793813 1612,942 C 1703.4059278350514,942.9961340206187 1857.2588365243005,942.9988954344624 1919,940 C 1980.7411634756995,937.0011045655376 1950.3705817378498,931.0005522827688 1920,925 C 1920,925 1920,1080 1920,1080 Z" fill="#3d1053" opacity="0.5142857142857142"/><path d="M 0,1080 C 0,1080 0,1079 0,1079 C 103.59941089837997,1087.002761413844 207.19882179675994,1095.0055228276876 305,1083 C 402.80117820324006,1070.9944771723124 494.80412371134014,1038.9806701030927 582,1041 C 669.1958762886599,1043.0193298969073 751.5846833578793,1079.0717967599412 836,1098 C 920.4153166421207,1116.9282032400588 1006.8571428571427,1118.732142857143 1107,1109 C 1207.1428571428573,1099.267857142857 1320.9867452135493,1077.9996318114875 1417,1088 C 1513.0132547864507,1098.0003681885125 1591.1958762886595,1139.2693298969073 1694,1133 C 1796.8041237113405,1126.7306701030927 1924.2297496318115,1072.9230486008837 1966,1056 C 2007.7702503681885,1039.0769513991163 1963.8851251840942,1059.0384756995581 1920,1079 C 1920,1079 1920,1080 1920,1080 Z" fill="#3d1053" opacity="0.6"/></svg>